<?xml version="1.0" encoding="UTF-8" standalone="no"?>
<svg
   xmlns:dc="http://purl.org/dc/elements/1.1/"
   xmlns:cc="http://creativecommons.org/ns#"
   xmlns:rdf="http://www.w3.org/1999/02/22-rdf-syntax-ns#"
   xmlns:svg="http://www.w3.org/2000/svg"
   xmlns="http://www.w3.org/2000/svg"
   viewBox="0 0 665.33331 385.33334"
   height="385.33334"
   width="665.33331"
   xml:space="preserve"
   id="svg2"
   version="1.1"><metadata
     id="metadata8"><rdf:RDF><cc:Work
         rdf:about=""><dc:format>image/svg+xml</dc:format><dc:type
           rdf:resource="http://purl.org/dc/dcmitype/StillImage" /></cc:Work></rdf:RDF></metadata><defs
     id="defs6"><clipPath
       id="clipPath14"
       clipPathUnits="userSpaceOnUse"><path
         id="path12"
         d="M 0,0 H 289 V 499 H 0 Z" /></clipPath></defs><g
     clip-path="url(#clipPath14)"
     transform="matrix(0,1.3333333,1.3333333,0,0,0)"
     id="g10"><g
       transform="scale(0.1)"
       id="g16"><g
         transform="scale(10)"
         id="g18"><text
           id="text112"
           style="font-variant:normal;font-weight:normal;font-size:4.93394995px;font-family:'Courier 10 Pitch';-inkscape-font-specification:Courier;writing-mode:lr-tb;fill:#000000;fill-opacity:1;fill-rule:nonzero;stroke:none"
           transform="matrix(0,1,0.89988751,0,4.1,5.55)"><tspan
             id="tspan20"
             y="0"
             x="0 2.9603701 5.9207401 8.8811102 11.84148 14.80185 17.76222 20.722589 23.682961 26.64333 29.603701 32.564072 35.524441 38.48481 41.445179">1 mujer(clara).</tspan><tspan
             id="tspan22"
             y="6.5785112"
             x="0 2.9603701 5.9207401 8.8811102 11.84148 14.80185 17.76222 20.722589 23.682961 26.64333 29.603701 32.564072 35.524441 38.48481 41.445179 44.405548">2 mujer(isabel).</tspan><tspan
             id="tspan24"
             y="13.157022"
             x="0 2.9603701 5.9207401 8.8811102 11.84148 14.80185 17.76222 20.722589 23.682961 26.64333 29.603701 32.564072 35.524441">3 mujer(ana).</tspan><tspan
             id="tspan26"
             y="19.735533"
             x="0 2.9603701 5.9207401 8.8811102 11.84148 14.80185 17.76222 20.722589 23.682961 26.64333 29.603701 32.564072 35.524441 38.48481 41.445179 44.405548 47.365921 50.32629">4 mujer(patricia).</tspan><tspan
             id="tspan28"
             y="26.314045"
             x="0 2.9603701 5.9207401 8.8811102 11.84148 14.80185 17.76222 20.722589 23.682961 26.64333 29.603701 32.564072 35.524441 38.48481 41.445179 44.405548">5 hombre(tomas).</tspan><tspan
             id="tspan30"
             y="32.892555"
             x="0 2.9603701 5.9207401 8.8811102 11.84148 14.80185 17.76222 20.722589 23.682961 26.64333 29.603701 32.564072 35.524441 38.48481 41.445179">6 hombre(jose).</tspan><tspan
             id="tspan32"
             y="39.471066"
             x="0 2.9603701 5.9207401 8.8811102 11.84148 14.80185 17.76222 20.722589 23.682961 26.64333 29.603701 32.564072 35.524441 38.48481 41.445179 44.405548">7 hombre(jaime).</tspan><tspan
             id="tspan34"
             y="46.04958"
             x="0 2.9603701 5.9207401 8.8811102 11.84148 14.80185 17.76222 20.722589 23.682961 26.64333 29.603701 32.564072 35.524441 38.48481 41.445179 44.405548 47.365921 50.32629 53.286659 56.247028 59.207401 62.16777 65.128143 68.088509 71.048882 74.009247">8 progenitor(clara, jose).</tspan><tspan
             id="tspan36"
             y="52.62809"
             x="0 2.9603701 5.9207401 8.8811102 11.84148 14.80185 17.76222 20.722589 23.682961 26.64333 29.603701 32.564072 35.524441 38.48481 41.445179 44.405548 47.365921 50.32629 53.286659 56.247028 59.207401 62.16777 65.128143 68.088509 71.048882 74.009247">9 progenitor(tomas, jose).</tspan><tspan
             id="tspan38"
             y="59.2066"
             x="0 2.9603701 5.9207401 8.8811102 11.84148 14.80185 17.76222 20.722589 23.682961 26.64333 29.603701 32.564072 35.524441 38.48481 41.445179 44.405548 47.365921 50.32629 53.286659 56.247028 59.207401 62.16777 65.128143 68.088509 71.048882 74.009247 76.96962 79.929993 82.890358">10 progenitor(tomas, isabel).</tspan><tspan
             id="tspan40"
             y="65.78511"
             x="0 2.9603701 5.9207401 8.8811102 11.84148 14.80185 17.76222 20.722589 23.682961 26.64333 29.603701 32.564072 35.524441 38.48481 41.445179 44.405548 47.365921 50.32629 53.286659 56.247028 59.207401 62.16777 65.128143 68.088509 71.048882">11 progenitor(jose, ana).</tspan><tspan
             id="tspan42"
             y="72.363625"
             x="0 2.9603701 5.9207401 8.8811102 11.84148 14.80185 17.76222 20.722589 23.682961 26.64333 29.603701 32.564072 35.524441 38.48481 41.445179 44.405548 47.365921 50.32629 53.286659 56.247028 59.207401 62.16777 65.128143 68.088509 71.048882 74.009247 76.96962 79.929993 82.890358 85.850731">12 progenitor(jose, patricia).</tspan><tspan
             id="tspan44"
             y="78.942131"
             x="0 2.9603701 5.9207401 8.8811102 11.84148 14.80185 17.76222 20.722589 23.682961 26.64333 29.603701 32.564072 35.524441 38.48481 41.445179 44.405548 47.365921 50.32629 53.286659 56.247028 59.207401 62.16777 65.128143 68.088509 71.048882 74.009247 76.96962 79.929993 82.890358 85.850731 88.811096">13 progenitor(patricia, jaime).</tspan><tspan
             id="tspan46"
             y="85.520645"
             x="0 2.9603701 5.9207401 8.8811102 11.84148 14.80185 17.76222 20.722589 23.682961 26.64333 29.603701 32.564072 35.524441 38.48481">14 dif(X, Y):-</tspan><tspan
             id="tspan48"
             y="92.099152"
             x="0 20.722589 23.682961 26.64333 29.603701 32.564072"> X\=Y.</tspan><tspan
             id="tspan50"
             y="98.677666"
             x="0 2.9603701 5.9207401 8.8811102 11.84148 14.80185 17.76222 20.722589 23.682961 26.64333 29.603701 32.564072 35.524441 38.48481 41.445179 44.405548">15 es_madre(X):-</tspan><tspan
             id="tspan52"
             y="105.25618"
             x="0 20.722589 23.682961 26.64333 29.603701 32.564072 35.524441 38.48481 41.445179 44.405548"> mujer(X),</tspan><tspan
             id="tspan54"
             y="111.83469"
             x="0 20.722589 23.682961 26.64333 29.603701 32.564072 35.524441 38.48481 41.445179 44.405548 47.365921 50.32629 53.286659 56.247028 59.207401 62.16777 65.128143 68.088509 71.048882"> progenitor(X, _A).</tspan><tspan
             id="tspan56"
             y="118.4132"
             x="0 2.9603701 5.9207401 8.8811102 11.84148 14.80185 17.76222 20.722589 23.682961 26.64333 29.603701 32.564072 35.524441 38.48481 41.445179 44.405548">16 es_padre(X):-</tspan><tspan
             id="tspan58"
             y="124.99171"
             x="0 20.722589 23.682961 26.64333 29.603701 32.564072 35.524441 38.48481 41.445179 44.405548 47.365921"> hombre(X),</tspan><tspan
             id="tspan60"
             y="131.57022"
             x="0 20.722589 23.682961 26.64333 29.603701 32.564072 35.524441 38.48481 41.445179 44.405548 47.365921 50.32629 53.286659 56.247028 59.207401 62.16777 65.128143 68.088509 71.048882"> progenitor(X, _A).</tspan><tspan
             id="tspan62"
             y="138.14873"
             x="0 2.9603701 5.9207401 8.8811102 11.84148 14.80185 17.76222 20.722589 23.682961 26.64333 29.603701 32.564072 35.524441 38.48481 41.445179">17 es_hijo(X):-</tspan><tspan
             id="tspan64"
             y="144.72723"
             x="0 20.722589 23.682961 26.64333 29.603701 32.564072 35.524441 38.48481 41.445179 44.405548 47.365921 50.32629 53.286659 56.247028 59.207401 62.16777 65.128143 68.088509 71.048882"> progenitor(_A, X).</tspan><tspan
             id="tspan66"
             y="151.30576"
             x="0 2.9603701 5.9207401 8.8811102 11.84148 14.80185 17.76222 20.722589 23.682961 26.64333 29.603701 32.564072 35.524441 38.48481 41.445179 44.405548 47.365921 50.32629 53.286659 56.247028 59.207401">18 hermana_de(X, Y):-</tspan><tspan
             id="tspan68"
             y="157.88428"
             x="0 20.722589 23.682961 26.64333 29.603701 32.564072 35.524441 38.48481 41.445179 44.405548"> mujer(X),</tspan><tspan
             id="tspan70"
             y="164.46278"
             x="0 20.722589 23.682961 26.64333 29.603701 32.564072 35.524441 38.48481 41.445179 44.405548 47.365921 50.32629 53.286659 56.247028 59.207401 62.16777 65.128143 68.088509"> progenitor(Z, X),</tspan><tspan
             id="tspan72"
             y="171.04129"
             x="0 20.722589 23.682961 26.64333 29.603701 32.564072 35.524441 38.48481 41.445179 44.405548 47.365921 50.32629 53.286659 56.247028 59.207401 62.16777 65.128143 68.088509"> progenitor(Z, Y),</tspan><tspan
             id="tspan74"
             y="177.6198"
             x="0 20.722589 23.682961 26.64333 29.603701 32.564072 35.524441 38.48481 41.445179 44.405548 47.365921"> dif(X, Y).</tspan><tspan
             id="tspan76"
             y="184.1983"
             x="0 2.9603701 5.9207401 8.8811102 11.84148 14.80185 17.76222 20.722589 23.682961 26.64333 29.603701 32.564072 35.524441 38.48481 41.445179 44.405548 47.365921 50.32629 53.286659 56.247028">19 abuelo_de(X, Y):-</tspan><tspan
             id="tspan78"
             y="190.77682"
             x="0 20.722589 23.682961 26.64333 29.603701 32.564072 35.524441 38.48481 41.445179 44.405548 47.365921"> hombre(X),</tspan><tspan
             id="tspan80"
             y="197.35533"
             x="0 20.722589 23.682961 26.64333 29.603701 32.564072 35.524441 38.48481 41.445179 44.405548 47.365921 50.32629 53.286659 56.247028 59.207401 62.16777 65.128143 68.088509"> progenitor(X, Z),</tspan><tspan
             id="tspan82"
             y="203.93384"
             x="0 20.722589 23.682961 26.64333 29.603701 32.564072 35.524441 38.48481 41.445179 44.405548 47.365921 50.32629 53.286659 56.247028 59.207401 62.16777 65.128143 68.088509"> progenitor(Z, Y),</tspan><tspan
             id="tspan84"
             y="210.51236"
             x="0 20.722589 23.682961 26.64333 29.603701 32.564072 35.524441 38.48481 41.445179 44.405548 47.365921"> dif(X, Y).</tspan><tspan
             id="tspan86"
             y="217.09087"
             x="0 2.9603701 5.9207401 8.8811102 11.84148 14.80185 17.76222 20.722589 23.682961 26.64333 29.603701 32.564072 35.524441 38.48481 41.445179 44.405548 47.365921 50.32629 53.286659 56.247028">20 abuela_de(X, Y):-</tspan><tspan
             id="tspan88"
             y="223.66937"
             x="0 20.722589 23.682961 26.64333 29.603701 32.564072 35.524441 38.48481 41.445179 44.405548"> mujer(X),</tspan><tspan
             id="tspan90"
             y="230.24789"
             x="0 20.722589 23.682961 26.64333 29.603701 32.564072 35.524441 38.48481 41.445179 44.405548 47.365921 50.32629 53.286659 56.247028 59.207401 62.16777 65.128143 68.088509"> progenitor(X, Z),</tspan><tspan
             id="tspan92"
             y="236.8264"
             x="0 20.722589 23.682961 26.64333 29.603701 32.564072 35.524441 38.48481 41.445179 44.405548 47.365921 50.32629 53.286659 56.247028 59.207401 62.16777 65.128143 68.088509"> progenitor(Z, Y),</tspan><tspan
             id="tspan94"
             y="243.40491"
             x="0 20.722589 23.682961 26.64333 29.603701 32.564072 35.524441 38.48481 41.445179 44.405548 47.365921"> dif(X, Y).</tspan><tspan
             id="tspan96"
             y="249.98341"
             x="0 2.9603701 5.9207401 8.8811102 11.84148 14.80185 17.76222 20.722589 23.682961 26.64333 29.603701 32.564072 35.524441 38.48481 41.445179 44.405548 47.365921 50.32629 53.286659">21 hermanos(X, Y):-</tspan><tspan
             id="tspan98"
             y="256.56192"
             x="0 20.722589 23.682961 26.64333 29.603701 32.564072 35.524441 38.48481 41.445179 44.405548 47.365921 50.32629 53.286659 56.247028 59.207401 62.16777 65.128143 68.088509"> progenitor(Z, X),</tspan><tspan
             id="tspan100"
             y="263.14044"
             x="0 20.722589 23.682961 26.64333 29.603701 32.564072 35.524441 38.48481 41.445179 44.405548 47.365921 50.32629 53.286659 56.247028 59.207401 62.16777 65.128143 68.088509"> progenitor(Z, Y),</tspan><tspan
             id="tspan102"
             y="269.71896"
             x="0 20.722589 23.682961 26.64333 29.603701 32.564072 35.524441 38.48481 41.445179 44.405548 47.365921"> dif(X, Y).</tspan><tspan
             id="tspan104"
             y="276.29745"
             x="0 2.9603701 5.9207401 8.8811102 11.84148 14.80185 17.76222 20.722589 23.682961 26.64333 29.603701 32.564072 35.524441 38.48481">22 tia(X, Y):-</tspan><tspan
             id="tspan106"
             y="282.87598"
             x="0 20.722589 23.682961 26.64333 29.603701 32.564072 35.524441 38.48481 41.445179 44.405548"> mujer(X),</tspan><tspan
             id="tspan108"
             y="289.4545"
             x="0 20.722589 23.682961 26.64333 29.603701 32.564072 35.524441 38.48481 41.445179 44.405548 47.365921 50.32629 53.286659 56.247028 59.207401 62.16777 65.128143 68.088509"> progenitor(Z, Y),</tspan><tspan
             id="tspan110"
             y="296.03299"
             x="0 20.722589 23.682961 26.64333 29.603701 32.564072 35.524441 38.48481 41.445179 44.405548 47.365921 50.32629 53.286659 56.247028 59.207401 62.16777 65.128143 68.088509"> hermana_de(X, Z).</tspan></text>
</g><path
         id="path114"
         style="fill:none;stroke:#000000;stroke-width:1.85000002;stroke-linecap:butt;stroke-linejoin:miter;stroke-miterlimit:10;stroke-dasharray:none;stroke-opacity:1"
         d="m 2738.3,111 h 148" /><path
         id="path116"
         style="fill:#000000;fill-opacity:1;fill-rule:nonzero;stroke:none"
         d="m 2849.3,99.8984 37,11.1016 -37,11.102" /><path
         id="path118"
         style="fill:none;stroke:#000000;stroke-width:1.85000002;stroke-linecap:butt;stroke-linejoin:miter;stroke-miterlimit:10;stroke-dasharray:none;stroke-opacity:1"
         d="M 2812.3,37 V 185" /><path
         id="path120"
         style="fill:#000000;fill-opacity:1;fill-rule:nonzero;stroke:none"
         d="m 2823.4,148 -11.1,37 -11.1,-37" /><path
         id="path122"
         style="fill:#00ff00;fill-opacity:1;fill-rule:nonzero;stroke:none"
         d="m 2812.3,146.148 c 19.41,0 35.15,-15.738 35.15,-35.148 0,-19.4102 -15.74,-35.1484 -35.15,-35.1484 -19.41,0 -35.15,15.7382 -35.15,35.1484 0,19.41 15.74,35.148 35.15,35.148" /><path
         id="path124"
         style="fill:none;stroke:#000000;stroke-width:1.85000002;stroke-linecap:butt;stroke-linejoin:miter;stroke-miterlimit:10;stroke-dasharray:none;stroke-opacity:1"
         d="m 2812.3,146.148 c 19.41,0 35.15,-15.738 35.15,-35.148 0,-19.4102 -15.74,-35.1484 -35.15,-35.1484 -19.41,0 -35.15,15.7382 -35.15,35.1484 0,19.41 15.74,35.148 35.15,35.148" /><g
         transform="scale(10)"
         id="g126"><text
           id="text132"
           style="font-variant:normal;font-weight:normal;font-size:4.93394995px;font-family:'Courier 10 Pitch';-inkscape-font-specification:Courier;writing-mode:lr-tb;fill:#00008c;fill-opacity:1;fill-rule:nonzero;stroke:none"
           transform="matrix(0,1,0.89988751,0,4.1,281.94)"><tspan
             id="tspan128"
             y="0"
             x="0 2.9603701 5.9207401 8.8811102 11.84148 14.80185 17.76222 20.722589 23.682961 26.64333 29.603701 32.564072 35.524441 38.48481">1) es_madre(X)</tspan><tspan
             id="tspan130"
             y="24.66975"
             x="-25.159811 -22.199442 -19.239071 -16.278702 -13.318332 -10.357962 -7.3975911 -4.4372211 -1.4768512 1.4835187 4.4438887 7.4042587 10.364629 13.324999 16.285368 19.245739 22.206108 25.166479 28.126848 31.087219 34.047588 37.007957 39.96833 42.928699 45.889069 48.849438 51.809811 54.77018 57.730549 60.690918 63.651287">2) mujer(X), progenitor(X, _A1)</tspan></text>
</g><path
         id="path134"
         style="fill:none;stroke:#000000;stroke-width:1.85000002;stroke-linecap:butt;stroke-linejoin:miter;stroke-miterlimit:10;stroke-dasharray:none;stroke-opacity:1"
         d="M 55.8008,3026.6 H 218.602" /><path
         id="path136"
         style="fill:#000000;fill-opacity:1;fill-rule:nonzero;stroke:none"
         d="m 181.602,3015.5 37,11.1 -37,11.1" /><g
         transform="scale(10)"
         id="g138"><text
           id="text142"
           style="font-variant:normal;font-weight:normal;font-size:4.93394995px;font-family:'Courier 10 Pitch';-inkscape-font-specification:Courier;writing-mode:lr-tb;fill:#b8870a;fill-opacity:1;fill-rule:nonzero;stroke:none"
           transform="matrix(0,1,0.89988751,0,12.2398,286.38)"><tspan
             id="tspan140"
             y="0"
             x="0 2.9603701 5.9207401 8.8811102 11.84148 14.80185 17.76222 20.722589 23.682961 26.64333 29.603701">15 - {X1/X}</tspan></text>
</g><g
         transform="scale(10)"
         id="g144"><text
           id="text148"
           style="font-variant:normal;font-weight:normal;font-size:4.93394995px;font-family:'Courier 10 Pitch';-inkscape-font-specification:Courier;writing-mode:lr-tb;fill:#00008c;fill-opacity:1;fill-rule:nonzero;stroke:none"
           transform="matrix(0,1,0.89988751,0,48.5,110.26)"><tspan
             id="tspan146"
             y="0"
             x="0 2.9603701 5.9207401 8.8811102 11.84148 14.80185 17.76222 20.722589 23.682961 26.64333 29.603701 32.564072 35.524441 38.48481 41.445179 44.405548 47.365921 50.32629 53.286659 56.247028 59.207401 62.16777 65.128143 68.088509 71.048882">3) progenitor(clara, _A1)</tspan></text>
</g><path
         id="path150"
         style="fill:none;stroke:#000000;stroke-width:1.85000002;stroke-linecap:butt;stroke-linejoin:miter;stroke-miterlimit:10;stroke-dasharray:none;stroke-opacity:1"
         d="m 277.801,3026.6 162.801,-1554" /><path
         id="path152"
         style="fill:#000000;fill-opacity:1;fill-rule:nonzero;stroke:none"
         d="m 425.801,1509.6 14.801,-37 7.398,37" /><g
         transform="scale(10)"
         id="g154"><text
           id="text158"
           style="font-variant:normal;font-weight:normal;font-size:4.93394995px;font-family:'Courier 10 Pitch';-inkscape-font-specification:Courier;writing-mode:lr-tb;fill:#b8870a;fill-opacity:1;fill-rule:nonzero;stroke:none"
           transform="matrix(0,1,0.89988751,0,40.3602,205.72)"><tspan
             id="tspan156"
             y="0"
             x="0 2.9603701 5.9207401 8.8811102 11.84148 14.80185 17.76222 20.722589 23.682961 26.64333 29.603701 32.564072 35.524441">1 - {X/clara}</tspan></text>
</g><g
         transform="scale(10)"
         id="g160"><text
           id="text166"
           style="font-variant:normal;font-weight:normal;font-size:4.93394995px;font-family:'Courier 10 Pitch';-inkscape-font-specification:Courier;writing-mode:lr-tb;fill:#006300;fill-opacity:1;fill-rule:nonzero;stroke:none"
           transform="matrix(0,1,0.89988751,0,70.7,135.42)"><tspan
             id="tspan162"
             y="0"
             x="0 2.9603701 5.9207401 8.8811102 11.84148 14.80185 17.76222 20.722589">4. Øxito</tspan><tspan
             id="tspan164"
             y="6.5785112"
             x="-1.480085 1.480285 4.4406552 7.4010248 10.361395 13.321765 16.282135 19.242504 22.202875">{X/clara}</tspan></text>
</g><path
         id="path168"
         style="fill:none;stroke:#000000;stroke-width:1.85000002;stroke-linecap:butt;stroke-linejoin:miter;stroke-miterlimit:10;stroke-dasharray:none;stroke-opacity:1"
         d="M 499.801,1472.6 H 662.602" /><path
         id="path170"
         style="fill:#000000;fill-opacity:1;fill-rule:nonzero;stroke:none"
         d="m 625.602,1461.5 37,11.1 -37,11.1" /><g
         transform="scale(10)"
         id="g172"><text
           id="text176"
           style="font-variant:normal;font-weight:normal;font-size:4.93394995px;font-family:'Courier 10 Pitch';-inkscape-font-specification:Courier;writing-mode:lr-tb;fill:#b8870a;fill-opacity:1;fill-rule:nonzero;stroke:none"
           transform="matrix(0,1,0.89988751,0,56.6398,126.54)"><tspan
             id="tspan174"
             y="0"
             x="0 2.9603701 5.9207401 8.8811102 11.84148 14.80185 17.76222 20.722589 23.682961 26.64333 29.603701 32.564072 35.524441 38.48481">8 - {_A1/jose}</tspan></text>
</g><g
         transform="scale(10)"
         id="g178"><text
           id="text184"
           style="font-variant:normal;font-weight:normal;font-size:4.93394995px;font-family:'Courier 10 Pitch';-inkscape-font-specification:Courier;writing-mode:lr-tb;fill:#ff0000;fill-opacity:1;fill-rule:nonzero;stroke:none"
           transform="matrix(0,1,0.89988751,0,48.5,212.38)"><tspan
             id="tspan180"
             y="0"
             x="0 2.9603701 5.9207401 8.8811102 11.84148 14.80185 17.76222 20.722589 23.682961 26.64333 29.603701 32.564072 35.524441 38.48481 41.445179 44.405548 47.365921 50.32629 53.286659 56.247028 59.207401 62.16777 65.128143 68.088509 71.048882 74.009247">5) progenitor(isabel, _A1)</tspan><tspan
             id="tspan182"
             y="6.5785112"
             x="31.080107 34.040478 37.000847 39.961216 42.921585">fallo</tspan></text>
</g><path
         id="path186"
         style="fill:none;stroke:#000000;stroke-width:1.85000002;stroke-linecap:butt;stroke-linejoin:miter;stroke-miterlimit:10;stroke-dasharray:none;stroke-opacity:1"
         d="m 277.801,3026.6 162.801,-518" /><path
         id="path188"
         style="fill:#000000;fill-opacity:1;fill-rule:nonzero;stroke:none"
         d="m 418.398,2541.9 22.204,-33.3 v 40.7" /><g
         transform="scale(10)"
         id="g190"><text
           id="text194"
           style="font-variant:normal;font-weight:normal;font-size:4.93394995px;font-family:'Courier 10 Pitch';-inkscape-font-specification:Courier;writing-mode:lr-tb;fill:#b8870a;fill-opacity:1;fill-rule:nonzero;stroke:none"
           transform="matrix(0,1,0.89988751,0,34.4398,256.04)"><tspan
             id="tspan192"
             y="0"
             x="0 2.9603701 5.9207401 8.8811102 11.84148 14.80185 17.76222 20.722589 23.682961 26.64333 29.603701 32.564072 35.524441 38.48481">2 - {X/isabel}</tspan></text>
</g><g
         transform="scale(10)"
         id="g196"><text
           id="text202"
           style="font-variant:normal;font-weight:normal;font-size:4.93394995px;font-family:'Courier 10 Pitch';-inkscape-font-specification:Courier;writing-mode:lr-tb;fill:#ff0000;fill-opacity:1;fill-rule:nonzero;stroke:none"
           transform="matrix(0,1,0.89988751,0,48.5,320.42)"><tspan
             id="tspan198"
             y="0"
             x="0 2.9603701 5.9207401 8.8811102 11.84148 14.80185 17.76222 20.722589 23.682961 26.64333 29.603701 32.564072 35.524441 38.48481 41.445179 44.405548 47.365921 50.32629 53.286659 56.247028 59.207401 62.16777 65.128143">6) progenitor(ana, _A1)</tspan><tspan
             id="tspan200"
             y="6.5785112"
             x="26.640329 29.6007 32.561069 35.521439 38.481812">fallo</tspan></text>
</g><path
         id="path204"
         style="fill:none;stroke:#000000;stroke-width:1.85000002;stroke-linecap:butt;stroke-linejoin:miter;stroke-miterlimit:10;stroke-dasharray:none;stroke-opacity:1"
         d="m 277.801,3026.6 162.801,518" /><path
         id="path206"
         style="fill:#000000;fill-opacity:1;fill-rule:nonzero;stroke:none"
         d="m 440.602,3503.9 v 40.7 l -22.204,-33.3" /><g
         transform="scale(10)"
         id="g208"><text
           id="text212"
           style="font-variant:normal;font-weight:normal;font-size:4.93394995px;font-family:'Courier 10 Pitch';-inkscape-font-specification:Courier;writing-mode:lr-tb;fill:#b8870a;fill-opacity:1;fill-rule:nonzero;stroke:none"
           transform="matrix(0,1,0.89988751,0,40.3602,312.28)"><tspan
             id="tspan210"
             y="0"
             x="0 2.9603701 5.9207401 8.8811102 11.84148 14.80185 17.76222 20.722589 23.682961 26.64333 29.603701">3 - {X/ana}</tspan></text>
</g><g
         transform="scale(10)"
         id="g214"><text
           id="text218"
           style="font-variant:normal;font-weight:normal;font-size:4.93394995px;font-family:'Courier 10 Pitch';-inkscape-font-specification:Courier;writing-mode:lr-tb;fill:#00008c;fill-opacity:1;fill-rule:nonzero;stroke:none"
           transform="matrix(0,1,0.89988751,0,48.5,416.62)"><tspan
             id="tspan216"
             y="0"
             x="0 2.9603701 5.9207401 8.8811102 11.84148 14.80185 17.76222 20.722589 23.682961 26.64333 29.603701 32.564072 35.524441 38.48481 41.445179 44.405548 47.365921 50.32629 53.286659 56.247028 59.207401 62.16777 65.128143 68.088509 71.048882 74.009247 76.96962 79.929993">7) progenitor(patricia, _A1)</tspan></text>
</g><path
         id="path220"
         style="fill:none;stroke:#000000;stroke-width:1.85000002;stroke-linecap:butt;stroke-linejoin:miter;stroke-miterlimit:10;stroke-dasharray:none;stroke-opacity:1"
         d="m 277.801,3026.6 162.801,1554" /><path
         id="path222"
         style="fill:#000000;fill-opacity:1;fill-rule:nonzero;stroke:none"
         d="m 448,4543.6 -7.398,37 -14.801,-37" /><g
         transform="scale(10)"
         id="g224"><text
           id="text228"
           style="font-variant:normal;font-weight:normal;font-size:4.93394995px;font-family:'Courier 10 Pitch';-inkscape-font-specification:Courier;writing-mode:lr-tb;fill:#b8870a;fill-opacity:1;fill-rule:nonzero;stroke:none"
           transform="matrix(0,1,0.89988751,0,34.4398,356.68)"><tspan
             id="tspan226"
             y="0"
             x="0 2.9603701 5.9207401 8.8811102 11.84148 14.80185 17.76222 20.722589 23.682961 26.64333 29.603701 32.564072 35.524441 38.48481 41.445179 44.405548">4 - {X/patricia}</tspan></text>
</g><g
         transform="scale(10)"
         id="g230"><text
           id="text236"
           style="font-variant:normal;font-weight:normal;font-size:4.93394995px;font-family:'Courier 10 Pitch';-inkscape-font-specification:Courier;writing-mode:lr-tb;fill:#006300;fill-opacity:1;fill-rule:nonzero;stroke:none"
           transform="matrix(0,1,0.89988751,0,70.7,446.22)"><tspan
             id="tspan232"
             y="0"
             x="0 2.9603701 5.9207401 8.8811102 11.84148 14.80185 17.76222 20.722589">8. Øxito</tspan><tspan
             id="tspan234"
             y="6.5785112"
             x="-5.919929 -2.9595587 0.00081121002 2.9611812 5.9215512 8.8819208 11.842291 14.802661 17.763031 20.723402 23.683771 26.644142">{X/patricia}</tspan></text>
</g><path
         id="path238"
         style="fill:none;stroke:#000000;stroke-width:1.85000002;stroke-linecap:butt;stroke-linejoin:miter;stroke-miterlimit:10;stroke-dasharray:none;stroke-opacity:1"
         d="M 499.801,4580.6 H 662.602" /><path
         id="path240"
         style="fill:#000000;fill-opacity:1;fill-rule:nonzero;stroke:none"
         d="m 625.602,4569.5 37,11.1 -37,11.1" /><g
         transform="scale(10)"
         id="g242"><text
           id="text246"
           style="font-variant:normal;font-weight:normal;font-size:4.93394995px;font-family:'Courier 10 Pitch';-inkscape-font-specification:Courier;writing-mode:lr-tb;fill:#b8870a;fill-opacity:1;fill-rule:nonzero;stroke:none"
           transform="matrix(0,1,0.89988751,0,62.5602,434.38)"><tspan
             id="tspan244"
             y="0"
             x="0 2.9603701 5.9207401 8.8811102 11.84148 14.80185 17.76222 20.722589 23.682961 26.64333 29.603701 32.564072 35.524441 38.48481 41.445179 44.405548">13 - {_A1/jaime}</tspan></text>
</g></g></g></svg>